<mxfile host="app.diagrams.net" agent="Mozilla/5.0 (Windows NT 10.0; Win64; x64) AppleWebKit/537.36 (KHTML, like Gecko) Chrome/136.0.0.0 Safari/537.36" version="27.1.1">
  <diagram name="Página-1" id="szyFvTQL2NG3bhIB6wgM">
    <mxGraphModel dx="1111" dy="1634" grid="1" gridSize="10" guides="1" tooltips="1" connect="1" arrows="1" fold="1" page="1" pageScale="1" pageWidth="827" pageHeight="1169" math="0" shadow="0">
      <root>
        <mxCell id="0" />
        <mxCell id="1" parent="0" />
        <mxCell id="pRtGX5qjjVHAdSlU0r0P-1" value="&lt;font style=&quot;vertical-align: inherit;&quot;&gt;&lt;font style=&quot;vertical-align: inherit;&quot;&gt;PROVEEDOR&lt;/font&gt;&lt;/font&gt;" style="rounded=0;whiteSpace=wrap;html=1;" parent="1" vertex="1">
          <mxGeometry x="65" y="50" width="90" height="30" as="geometry" />
        </mxCell>
        <mxCell id="pRtGX5qjjVHAdSlU0r0P-2" value="&lt;font style=&quot;vertical-align: inherit;&quot;&gt;&lt;font style=&quot;vertical-align: inherit;&quot;&gt;&lt;u&gt;rtn&lt;/u&gt;&lt;/font&gt;&lt;/font&gt;" style="ellipse;whiteSpace=wrap;html=1;" parent="1" vertex="1">
          <mxGeometry x="20" width="40" height="20" as="geometry" />
        </mxCell>
        <mxCell id="pRtGX5qjjVHAdSlU0r0P-3" value="&lt;font style=&quot;vertical-align: inherit;&quot;&gt;&lt;font style=&quot;vertical-align: inherit;&quot;&gt;nombre&lt;/font&gt;&lt;/font&gt;" style="ellipse;whiteSpace=wrap;html=1;" parent="1" vertex="1">
          <mxGeometry x="80" y="-10" width="60" height="30" as="geometry" />
        </mxCell>
        <mxCell id="pRtGX5qjjVHAdSlU0r0P-4" value="&lt;font style=&quot;vertical-align: inherit;&quot;&gt;&lt;font style=&quot;vertical-align: inherit;&quot;&gt;direccion&lt;/font&gt;&lt;/font&gt;" style="ellipse;whiteSpace=wrap;html=1;" parent="1" vertex="1">
          <mxGeometry x="170" y="-10" width="60" height="30" as="geometry" />
        </mxCell>
        <mxCell id="pRtGX5qjjVHAdSlU0r0P-5" value="&lt;font style=&quot;vertical-align: inherit;&quot;&gt;&lt;font style=&quot;vertical-align: inherit;&quot;&gt;telefono&lt;/font&gt;&lt;/font&gt;" style="ellipse;whiteSpace=wrap;html=1;" parent="1" vertex="1">
          <mxGeometry x="21" y="100" width="60" height="30" as="geometry" />
        </mxCell>
        <mxCell id="pRtGX5qjjVHAdSlU0r0P-7" value="" style="endArrow=none;html=1;rounded=0;entryX=0.742;entryY=0.996;entryDx=0;entryDy=0;entryPerimeter=0;exitX=0;exitY=0;exitDx=0;exitDy=0;" parent="1" source="pRtGX5qjjVHAdSlU0r0P-1" target="pRtGX5qjjVHAdSlU0r0P-2" edge="1">
          <mxGeometry width="50" height="50" relative="1" as="geometry">
            <mxPoint x="230" y="170" as="sourcePoint" />
            <mxPoint x="-50" y="30" as="targetPoint" />
          </mxGeometry>
        </mxCell>
        <mxCell id="pRtGX5qjjVHAdSlU0r0P-8" value="" style="endArrow=none;html=1;rounded=0;entryX=0.5;entryY=1;entryDx=0;entryDy=0;exitX=0.5;exitY=0;exitDx=0;exitDy=0;" parent="1" source="pRtGX5qjjVHAdSlU0r0P-1" target="pRtGX5qjjVHAdSlU0r0P-3" edge="1">
          <mxGeometry width="50" height="50" relative="1" as="geometry">
            <mxPoint x="230" y="170" as="sourcePoint" />
            <mxPoint x="280" y="120" as="targetPoint" />
          </mxGeometry>
        </mxCell>
        <mxCell id="pRtGX5qjjVHAdSlU0r0P-9" value="" style="endArrow=none;html=1;rounded=0;entryX=1;entryY=0;entryDx=0;entryDy=0;exitX=0.25;exitY=1;exitDx=0;exitDy=0;" parent="1" source="pRtGX5qjjVHAdSlU0r0P-1" target="pRtGX5qjjVHAdSlU0r0P-5" edge="1">
          <mxGeometry width="50" height="50" relative="1" as="geometry">
            <mxPoint x="230" y="170" as="sourcePoint" />
            <mxPoint x="280" y="120" as="targetPoint" />
          </mxGeometry>
        </mxCell>
        <mxCell id="pRtGX5qjjVHAdSlU0r0P-10" value="" style="endArrow=none;html=1;rounded=0;entryX=0;entryY=1;entryDx=0;entryDy=0;exitX=1;exitY=0;exitDx=0;exitDy=0;" parent="1" source="pRtGX5qjjVHAdSlU0r0P-1" target="pRtGX5qjjVHAdSlU0r0P-4" edge="1">
          <mxGeometry width="50" height="50" relative="1" as="geometry">
            <mxPoint x="230" y="170" as="sourcePoint" />
            <mxPoint x="280" y="120" as="targetPoint" />
          </mxGeometry>
        </mxCell>
        <mxCell id="pRtGX5qjjVHAdSlU0r0P-11" value="&lt;font style=&quot;vertical-align: inherit;&quot;&gt;&lt;font style=&quot;vertical-align: inherit;&quot;&gt;pagina web&lt;/font&gt;&lt;/font&gt;" style="ellipse;whiteSpace=wrap;html=1;" parent="1" vertex="1">
          <mxGeometry x="130" y="100" width="80" height="30" as="geometry" />
        </mxCell>
        <mxCell id="pRtGX5qjjVHAdSlU0r0P-12" value="" style="endArrow=none;html=1;rounded=0;entryX=0.694;entryY=0.997;entryDx=0;entryDy=0;entryPerimeter=0;exitX=0;exitY=0;exitDx=0;exitDy=0;" parent="1" source="pRtGX5qjjVHAdSlU0r0P-11" target="pRtGX5qjjVHAdSlU0r0P-1" edge="1">
          <mxGeometry width="50" height="50" relative="1" as="geometry">
            <mxPoint x="230" y="170" as="sourcePoint" />
            <mxPoint x="280" y="120" as="targetPoint" />
          </mxGeometry>
        </mxCell>
        <mxCell id="pRtGX5qjjVHAdSlU0r0P-13" value="&lt;font style=&quot;vertical-align: inherit;&quot;&gt;&lt;font style=&quot;vertical-align: inherit;&quot;&gt;calle&lt;/font&gt;&lt;/font&gt;" style="ellipse;whiteSpace=wrap;html=1;" parent="1" vertex="1">
          <mxGeometry x="105" y="-60" width="50" height="20" as="geometry" />
        </mxCell>
        <mxCell id="pRtGX5qjjVHAdSlU0r0P-14" value="" style="endArrow=none;html=1;rounded=0;entryX=0.5;entryY=1;entryDx=0;entryDy=0;exitX=0;exitY=0;exitDx=0;exitDy=0;" parent="1" source="pRtGX5qjjVHAdSlU0r0P-4" target="pRtGX5qjjVHAdSlU0r0P-13" edge="1">
          <mxGeometry width="50" height="50" relative="1" as="geometry">
            <mxPoint x="230" y="120" as="sourcePoint" />
            <mxPoint x="280" y="70" as="targetPoint" />
          </mxGeometry>
        </mxCell>
        <mxCell id="pRtGX5qjjVHAdSlU0r0P-15" value="&lt;font style=&quot;vertical-align: inherit;&quot;&gt;&lt;font style=&quot;vertical-align: inherit;&quot;&gt;&lt;font style=&quot;vertical-align: inherit;&quot;&gt;&lt;font style=&quot;vertical-align: inherit;&quot;&gt;número&lt;/font&gt;&lt;/font&gt;&lt;/font&gt;&lt;/font&gt;" style="ellipse;whiteSpace=wrap;html=1;" parent="1" vertex="1">
          <mxGeometry x="168" y="-60" width="54" height="20" as="geometry" />
        </mxCell>
        <mxCell id="pRtGX5qjjVHAdSlU0r0P-16" value="&lt;font style=&quot;vertical-align: inherit;&quot;&gt;&lt;font style=&quot;vertical-align: inherit;&quot;&gt;colonia&lt;/font&gt;&lt;/font&gt;" style="ellipse;whiteSpace=wrap;html=1;" parent="1" vertex="1">
          <mxGeometry x="240" y="-60" width="50" height="20" as="geometry" />
        </mxCell>
        <mxCell id="pRtGX5qjjVHAdSlU0r0P-17" value="" style="endArrow=none;html=1;rounded=0;entryX=0.5;entryY=1;entryDx=0;entryDy=0;exitX=0.5;exitY=0;exitDx=0;exitDy=0;" parent="1" source="pRtGX5qjjVHAdSlU0r0P-4" target="pRtGX5qjjVHAdSlU0r0P-15" edge="1">
          <mxGeometry width="50" height="50" relative="1" as="geometry">
            <mxPoint x="220" y="-20" as="sourcePoint" />
            <mxPoint x="270" y="-70" as="targetPoint" />
          </mxGeometry>
        </mxCell>
        <mxCell id="pRtGX5qjjVHAdSlU0r0P-18" value="" style="endArrow=none;html=1;rounded=0;entryX=0;entryY=1;entryDx=0;entryDy=0;exitX=1;exitY=0;exitDx=0;exitDy=0;" parent="1" source="pRtGX5qjjVHAdSlU0r0P-4" target="pRtGX5qjjVHAdSlU0r0P-16" edge="1">
          <mxGeometry width="50" height="50" relative="1" as="geometry">
            <mxPoint x="230" y="10" as="sourcePoint" />
            <mxPoint x="280" y="-40" as="targetPoint" />
          </mxGeometry>
        </mxCell>
        <mxCell id="pRtGX5qjjVHAdSlU0r0P-19" value="&lt;font style=&quot;vertical-align: inherit;&quot;&gt;&lt;font style=&quot;vertical-align: inherit;&quot;&gt;cuidad&lt;/font&gt;&lt;/font&gt;" style="ellipse;whiteSpace=wrap;html=1;" parent="1" vertex="1">
          <mxGeometry x="270" y="-20" width="60" height="20" as="geometry" />
        </mxCell>
        <mxCell id="pRtGX5qjjVHAdSlU0r0P-20" value="" style="endArrow=none;html=1;rounded=0;entryX=1;entryY=0.5;entryDx=0;entryDy=0;exitX=-0.012;exitY=0.646;exitDx=0;exitDy=0;exitPerimeter=0;" parent="1" source="pRtGX5qjjVHAdSlU0r0P-19" target="pRtGX5qjjVHAdSlU0r0P-4" edge="1">
          <mxGeometry width="50" height="50" relative="1" as="geometry">
            <mxPoint x="290" y="40" as="sourcePoint" />
            <mxPoint x="340" y="-10" as="targetPoint" />
          </mxGeometry>
        </mxCell>
        <mxCell id="2ec3EmsC7fEN4lfsqb_H-2" value="CLIENTE" style="rounded=0;whiteSpace=wrap;html=1;" parent="1" vertex="1">
          <mxGeometry x="620" y="60" width="80" height="30" as="geometry" />
        </mxCell>
        <mxCell id="2ec3EmsC7fEN4lfsqb_H-3" value="direccion" style="ellipse;whiteSpace=wrap;html=1;" parent="1" vertex="1">
          <mxGeometry x="510" y="10" width="80" height="30" as="geometry" />
        </mxCell>
        <mxCell id="2ec3EmsC7fEN4lfsqb_H-4" value="&lt;font style=&quot;vertical-align: inherit;&quot;&gt;&lt;font style=&quot;vertical-align: inherit;&quot;&gt;&lt;font style=&quot;vertical-align: inherit;&quot;&gt;&lt;font style=&quot;vertical-align: inherit;&quot;&gt;número&lt;/font&gt;&lt;/font&gt;&lt;/font&gt;&lt;/font&gt;" style="ellipse;whiteSpace=wrap;html=1;" parent="1" vertex="1">
          <mxGeometry x="470" y="-30" width="54" height="20" as="geometry" />
        </mxCell>
        <mxCell id="2ec3EmsC7fEN4lfsqb_H-5" value="&lt;font style=&quot;vertical-align: inherit;&quot;&gt;&lt;font style=&quot;vertical-align: inherit;&quot;&gt;colonia&lt;/font&gt;&lt;/font&gt;" style="ellipse;whiteSpace=wrap;html=1;" parent="1" vertex="1">
          <mxGeometry x="525" y="-50" width="50" height="20" as="geometry" />
        </mxCell>
        <mxCell id="2ec3EmsC7fEN4lfsqb_H-6" value="" style="endArrow=none;html=1;rounded=0;entryX=0.5;entryY=1;entryDx=0;entryDy=0;exitX=0;exitY=0;exitDx=0;exitDy=0;" parent="1" source="2ec3EmsC7fEN4lfsqb_H-3" target="2ec3EmsC7fEN4lfsqb_H-4" edge="1">
          <mxGeometry width="50" height="50" relative="1" as="geometry">
            <mxPoint x="612" y="-10" as="sourcePoint" />
            <mxPoint x="682" y="-70" as="targetPoint" />
          </mxGeometry>
        </mxCell>
        <mxCell id="2ec3EmsC7fEN4lfsqb_H-7" value="" style="endArrow=none;html=1;rounded=0;entryX=0.5;entryY=1;entryDx=0;entryDy=0;exitX=0.5;exitY=0;exitDx=0;exitDy=0;" parent="1" source="2ec3EmsC7fEN4lfsqb_H-3" target="2ec3EmsC7fEN4lfsqb_H-5" edge="1">
          <mxGeometry width="50" height="50" relative="1" as="geometry">
            <mxPoint x="633" y="-6" as="sourcePoint" />
            <mxPoint x="692" y="-40" as="targetPoint" />
            <Array as="points" />
          </mxGeometry>
        </mxCell>
        <mxCell id="2ec3EmsC7fEN4lfsqb_H-8" value="&lt;font style=&quot;vertical-align: inherit;&quot;&gt;&lt;font style=&quot;vertical-align: inherit;&quot;&gt;calle&lt;/font&gt;&lt;/font&gt;" style="ellipse;whiteSpace=wrap;html=1;" parent="1" vertex="1">
          <mxGeometry x="590" y="-30" width="62" height="20" as="geometry" />
        </mxCell>
        <mxCell id="2ec3EmsC7fEN4lfsqb_H-9" value="" style="endArrow=none;html=1;rounded=0;entryX=0;entryY=0.5;entryDx=0;entryDy=0;exitX=1;exitY=0;exitDx=0;exitDy=0;" parent="1" source="2ec3EmsC7fEN4lfsqb_H-3" target="2ec3EmsC7fEN4lfsqb_H-8" edge="1">
          <mxGeometry width="50" height="50" relative="1" as="geometry">
            <mxPoint x="390" y="70" as="sourcePoint" />
            <mxPoint x="440" y="20" as="targetPoint" />
          </mxGeometry>
        </mxCell>
        <mxCell id="2ec3EmsC7fEN4lfsqb_H-10" value="ciudad" style="ellipse;whiteSpace=wrap;html=1;" parent="1" vertex="1">
          <mxGeometry x="414" y="20" width="60" height="20" as="geometry" />
        </mxCell>
        <mxCell id="2ec3EmsC7fEN4lfsqb_H-11" value="" style="endArrow=none;html=1;rounded=0;exitX=1;exitY=0.5;exitDx=0;exitDy=0;" parent="1" source="2ec3EmsC7fEN4lfsqb_H-10" edge="1">
          <mxGeometry width="50" height="50" relative="1" as="geometry">
            <mxPoint x="460" y="80" as="sourcePoint" />
            <mxPoint x="510" y="30" as="targetPoint" />
          </mxGeometry>
        </mxCell>
        <mxCell id="2ec3EmsC7fEN4lfsqb_H-12" value="" style="endArrow=none;html=1;rounded=0;entryX=1;entryY=1;entryDx=0;entryDy=0;exitX=0;exitY=0;exitDx=0;exitDy=0;" parent="1" source="2ec3EmsC7fEN4lfsqb_H-2" target="2ec3EmsC7fEN4lfsqb_H-3" edge="1">
          <mxGeometry width="50" height="50" relative="1" as="geometry">
            <mxPoint x="600" y="100" as="sourcePoint" />
            <mxPoint x="650" y="50" as="targetPoint" />
          </mxGeometry>
        </mxCell>
        <mxCell id="2ec3EmsC7fEN4lfsqb_H-13" value="nombre" style="ellipse;whiteSpace=wrap;html=1;" parent="1" vertex="1">
          <mxGeometry x="660" y="-10" width="60" height="30" as="geometry" />
        </mxCell>
        <mxCell id="2ec3EmsC7fEN4lfsqb_H-14" value="" style="endArrow=none;html=1;rounded=0;entryX=0.5;entryY=1;entryDx=0;entryDy=0;exitX=0.5;exitY=0;exitDx=0;exitDy=0;" parent="1" source="2ec3EmsC7fEN4lfsqb_H-2" target="2ec3EmsC7fEN4lfsqb_H-13" edge="1">
          <mxGeometry width="50" height="50" relative="1" as="geometry">
            <mxPoint x="610" y="90" as="sourcePoint" />
            <mxPoint x="700" y="30" as="targetPoint" />
          </mxGeometry>
        </mxCell>
        <mxCell id="2ec3EmsC7fEN4lfsqb_H-15" value="&lt;u&gt;rtn&lt;/u&gt;" style="ellipse;whiteSpace=wrap;html=1;" parent="1" vertex="1">
          <mxGeometry x="740" y="20" width="40" height="20" as="geometry" />
        </mxCell>
        <mxCell id="2ec3EmsC7fEN4lfsqb_H-16" value="" style="endArrow=none;html=1;rounded=0;entryX=0;entryY=1;entryDx=0;entryDy=0;exitX=1;exitY=0;exitDx=0;exitDy=0;" parent="1" source="2ec3EmsC7fEN4lfsqb_H-2" target="2ec3EmsC7fEN4lfsqb_H-15" edge="1">
          <mxGeometry width="50" height="50" relative="1" as="geometry">
            <mxPoint x="710" y="70" as="sourcePoint" />
            <mxPoint x="650" y="50" as="targetPoint" />
          </mxGeometry>
        </mxCell>
        <mxCell id="2ec3EmsC7fEN4lfsqb_H-17" value="telefono" style="ellipse;whiteSpace=wrap;html=1;" parent="1" vertex="1">
          <mxGeometry x="740" y="80" width="60" height="20" as="geometry" />
        </mxCell>
        <mxCell id="2ec3EmsC7fEN4lfsqb_H-18" value="" style="endArrow=none;html=1;rounded=0;entryX=0;entryY=0.5;entryDx=0;entryDy=0;exitX=1;exitY=0.5;exitDx=0;exitDy=0;" parent="1" source="2ec3EmsC7fEN4lfsqb_H-2" target="2ec3EmsC7fEN4lfsqb_H-17" edge="1">
          <mxGeometry width="50" height="50" relative="1" as="geometry">
            <mxPoint x="600" y="100" as="sourcePoint" />
            <mxPoint x="650" y="50" as="targetPoint" />
          </mxGeometry>
        </mxCell>
        <mxCell id="2ec3EmsC7fEN4lfsqb_H-19" value="PRODUCTO" style="rounded=0;whiteSpace=wrap;html=1;" parent="1" vertex="1">
          <mxGeometry x="125" y="270" width="90" height="30" as="geometry" />
        </mxCell>
        <mxCell id="2ec3EmsC7fEN4lfsqb_H-20" value="stock" style="ellipse;whiteSpace=wrap;html=1;" parent="1" vertex="1">
          <mxGeometry x="140" y="340" width="60" height="30" as="geometry" />
        </mxCell>
        <mxCell id="2ec3EmsC7fEN4lfsqb_H-21" value="nombre" style="ellipse;whiteSpace=wrap;html=1;" parent="1" vertex="1">
          <mxGeometry x="21" y="330" width="70" height="30" as="geometry" />
        </mxCell>
        <mxCell id="2ec3EmsC7fEN4lfsqb_H-22" value="precio_actual" style="ellipse;whiteSpace=wrap;html=1;" parent="1" vertex="1">
          <mxGeometry x="130" y="210" width="100" height="40" as="geometry" />
        </mxCell>
        <mxCell id="2ec3EmsC7fEN4lfsqb_H-23" value="&lt;u&gt;id_producto&lt;/u&gt;" style="ellipse;whiteSpace=wrap;html=1;" parent="1" vertex="1">
          <mxGeometry x="20" y="210" width="100" height="40" as="geometry" />
        </mxCell>
        <mxCell id="2ec3EmsC7fEN4lfsqb_H-24" value="" style="endArrow=none;html=1;rounded=0;exitX=0.5;exitY=1;exitDx=0;exitDy=0;entryX=0;entryY=0;entryDx=0;entryDy=0;" parent="1" source="2ec3EmsC7fEN4lfsqb_H-23" target="2ec3EmsC7fEN4lfsqb_H-19" edge="1">
          <mxGeometry width="50" height="50" relative="1" as="geometry">
            <mxPoint x="430" y="260" as="sourcePoint" />
            <mxPoint x="480" y="210" as="targetPoint" />
          </mxGeometry>
        </mxCell>
        <mxCell id="2ec3EmsC7fEN4lfsqb_H-25" value="" style="endArrow=none;html=1;rounded=0;exitX=1;exitY=0;exitDx=0;exitDy=0;entryX=0;entryY=1;entryDx=0;entryDy=0;" parent="1" source="2ec3EmsC7fEN4lfsqb_H-21" target="2ec3EmsC7fEN4lfsqb_H-19" edge="1">
          <mxGeometry width="50" height="50" relative="1" as="geometry">
            <mxPoint x="290" y="350" as="sourcePoint" />
            <mxPoint x="340" y="300" as="targetPoint" />
          </mxGeometry>
        </mxCell>
        <mxCell id="2ec3EmsC7fEN4lfsqb_H-26" value="" style="endArrow=none;html=1;rounded=0;exitX=0.5;exitY=0;exitDx=0;exitDy=0;entryX=0.5;entryY=1;entryDx=0;entryDy=0;" parent="1" source="2ec3EmsC7fEN4lfsqb_H-20" target="2ec3EmsC7fEN4lfsqb_H-19" edge="1">
          <mxGeometry width="50" height="50" relative="1" as="geometry">
            <mxPoint x="290" y="350" as="sourcePoint" />
            <mxPoint x="340" y="300" as="targetPoint" />
          </mxGeometry>
        </mxCell>
        <mxCell id="2ec3EmsC7fEN4lfsqb_H-27" value="" style="endArrow=none;html=1;rounded=0;entryX=0.5;entryY=1;entryDx=0;entryDy=0;exitX=0.75;exitY=0;exitDx=0;exitDy=0;" parent="1" source="2ec3EmsC7fEN4lfsqb_H-19" target="2ec3EmsC7fEN4lfsqb_H-22" edge="1">
          <mxGeometry width="50" height="50" relative="1" as="geometry">
            <mxPoint x="470" y="280" as="sourcePoint" />
            <mxPoint x="520" y="230" as="targetPoint" />
          </mxGeometry>
        </mxCell>
        <mxCell id="2ec3EmsC7fEN4lfsqb_H-28" value="TIENE" style="rhombus;whiteSpace=wrap;html=1;" parent="1" vertex="1">
          <mxGeometry x="260" y="130" width="80" height="80" as="geometry" />
        </mxCell>
        <mxCell id="2ec3EmsC7fEN4lfsqb_H-29" value="" style="endArrow=none;html=1;rounded=0;exitX=0.5;exitY=0;exitDx=0;exitDy=0;entryX=1;entryY=0.5;entryDx=0;entryDy=0;" parent="1" source="2ec3EmsC7fEN4lfsqb_H-28" target="pRtGX5qjjVHAdSlU0r0P-1" edge="1">
          <mxGeometry width="50" height="50" relative="1" as="geometry">
            <mxPoint x="470" y="280" as="sourcePoint" />
            <mxPoint x="520" y="230" as="targetPoint" />
          </mxGeometry>
        </mxCell>
        <mxCell id="2ec3EmsC7fEN4lfsqb_H-30" value="" style="endArrow=none;html=1;rounded=0;entryX=0.5;entryY=1;entryDx=0;entryDy=0;exitX=1;exitY=0;exitDx=0;exitDy=0;" parent="1" source="2ec3EmsC7fEN4lfsqb_H-19" target="2ec3EmsC7fEN4lfsqb_H-28" edge="1">
          <mxGeometry width="50" height="50" relative="1" as="geometry">
            <mxPoint x="470" y="280" as="sourcePoint" />
            <mxPoint x="520" y="230" as="targetPoint" />
          </mxGeometry>
        </mxCell>
        <mxCell id="2ec3EmsC7fEN4lfsqb_H-31" value="VENTA" style="rounded=0;whiteSpace=wrap;html=1;" parent="1" vertex="1">
          <mxGeometry x="640" y="240" width="70" height="40" as="geometry" />
        </mxCell>
        <mxCell id="2ec3EmsC7fEN4lfsqb_H-32" value="&lt;u&gt;id_venta&lt;/u&gt;" style="ellipse;whiteSpace=wrap;html=1;" parent="1" vertex="1">
          <mxGeometry x="610" y="170" width="70" height="30" as="geometry" />
        </mxCell>
        <mxCell id="2ec3EmsC7fEN4lfsqb_H-33" value="" style="endArrow=none;html=1;rounded=0;entryX=0.571;entryY=1;entryDx=0;entryDy=0;exitX=0.5;exitY=0;exitDx=0;exitDy=0;entryPerimeter=0;" parent="1" source="2ec3EmsC7fEN4lfsqb_H-31" target="2ec3EmsC7fEN4lfsqb_H-32" edge="1">
          <mxGeometry width="50" height="50" relative="1" as="geometry">
            <mxPoint x="470" y="230" as="sourcePoint" />
            <mxPoint x="520" y="180" as="targetPoint" />
          </mxGeometry>
        </mxCell>
        <mxCell id="2ec3EmsC7fEN4lfsqb_H-34" value="fecha" style="ellipse;whiteSpace=wrap;html=1;" parent="1" vertex="1">
          <mxGeometry x="720" y="180" width="70" height="30" as="geometry" />
        </mxCell>
        <mxCell id="2ec3EmsC7fEN4lfsqb_H-35" value="" style="endArrow=none;html=1;rounded=0;entryX=0.571;entryY=1;entryDx=0;entryDy=0;exitX=1;exitY=0;exitDx=0;exitDy=0;entryPerimeter=0;" parent="1" source="2ec3EmsC7fEN4lfsqb_H-31" target="2ec3EmsC7fEN4lfsqb_H-34" edge="1">
          <mxGeometry width="50" height="50" relative="1" as="geometry">
            <mxPoint x="799" y="225" as="sourcePoint" />
            <mxPoint x="654" y="175" as="targetPoint" />
          </mxGeometry>
        </mxCell>
        <mxCell id="2ec3EmsC7fEN4lfsqb_H-36" value="descuento" style="ellipse;whiteSpace=wrap;html=1;" parent="1" vertex="1">
          <mxGeometry x="710" y="295" width="70" height="30" as="geometry" />
        </mxCell>
        <mxCell id="2ec3EmsC7fEN4lfsqb_H-37" value="" style="endArrow=none;html=1;rounded=0;entryX=0;entryY=0;entryDx=0;entryDy=0;exitX=0.914;exitY=1.025;exitDx=0;exitDy=0;exitPerimeter=0;" parent="1" source="2ec3EmsC7fEN4lfsqb_H-31" target="2ec3EmsC7fEN4lfsqb_H-36" edge="1">
          <mxGeometry width="50" height="50" relative="1" as="geometry">
            <mxPoint x="789" y="370" as="sourcePoint" />
            <mxPoint x="644" y="320" as="targetPoint" />
          </mxGeometry>
        </mxCell>
        <mxCell id="2ec3EmsC7fEN4lfsqb_H-38" value="monto_final" style="ellipse;whiteSpace=wrap;html=1;" parent="1" vertex="1">
          <mxGeometry x="605" y="320" width="80" height="30" as="geometry" />
        </mxCell>
        <mxCell id="2ec3EmsC7fEN4lfsqb_H-39" value="" style="endArrow=none;html=1;rounded=0;entryX=0.5;entryY=0;entryDx=0;entryDy=0;exitX=0.25;exitY=1;exitDx=0;exitDy=0;" parent="1" source="2ec3EmsC7fEN4lfsqb_H-31" target="2ec3EmsC7fEN4lfsqb_H-38" edge="1">
          <mxGeometry width="50" height="50" relative="1" as="geometry">
            <mxPoint x="620" y="290" as="sourcePoint" />
            <mxPoint x="504" y="332.5" as="targetPoint" />
          </mxGeometry>
        </mxCell>
        <mxCell id="2ec3EmsC7fEN4lfsqb_H-40" value="CONTIENE" style="rhombus;whiteSpace=wrap;html=1;" parent="1" vertex="1">
          <mxGeometry x="457" y="120" width="80" height="80" as="geometry" />
        </mxCell>
        <mxCell id="2ec3EmsC7fEN4lfsqb_H-41" value="" style="endArrow=none;html=1;rounded=0;entryX=0;entryY=0.5;entryDx=0;entryDy=0;exitX=0.5;exitY=0;exitDx=0;exitDy=0;" parent="1" source="2ec3EmsC7fEN4lfsqb_H-40" target="2ec3EmsC7fEN4lfsqb_H-2" edge="1">
          <mxGeometry width="50" height="50" relative="1" as="geometry">
            <mxPoint x="470" y="230" as="sourcePoint" />
            <mxPoint x="520" y="180" as="targetPoint" />
          </mxGeometry>
        </mxCell>
        <mxCell id="2ec3EmsC7fEN4lfsqb_H-42" value="" style="endArrow=none;html=1;rounded=0;entryX=0;entryY=0;entryDx=0;entryDy=0;exitX=0.5;exitY=1;exitDx=0;exitDy=0;" parent="1" source="2ec3EmsC7fEN4lfsqb_H-40" target="2ec3EmsC7fEN4lfsqb_H-31" edge="1">
          <mxGeometry width="50" height="50" relative="1" as="geometry">
            <mxPoint x="470" y="230" as="sourcePoint" />
            <mxPoint x="520" y="180" as="targetPoint" />
          </mxGeometry>
        </mxCell>
        <mxCell id="2ec3EmsC7fEN4lfsqb_H-43" value="POSEE" style="rhombus;whiteSpace=wrap;html=1;" parent="1" vertex="1">
          <mxGeometry x="380" y="260" width="80" height="80" as="geometry" />
        </mxCell>
        <mxCell id="2ec3EmsC7fEN4lfsqb_H-44" value="" style="endArrow=none;html=1;rounded=0;exitX=1;exitY=0.5;exitDx=0;exitDy=0;entryX=0;entryY=0.5;entryDx=0;entryDy=0;" parent="1" source="2ec3EmsC7fEN4lfsqb_H-19" target="2ec3EmsC7fEN4lfsqb_H-43" edge="1">
          <mxGeometry width="50" height="50" relative="1" as="geometry">
            <mxPoint x="470" y="410" as="sourcePoint" />
            <mxPoint x="520" y="360" as="targetPoint" />
          </mxGeometry>
        </mxCell>
        <mxCell id="2ec3EmsC7fEN4lfsqb_H-45" value="" style="endArrow=none;html=1;rounded=0;entryX=0;entryY=0.5;entryDx=0;entryDy=0;exitX=1;exitY=0.5;exitDx=0;exitDy=0;" parent="1" source="2ec3EmsC7fEN4lfsqb_H-43" target="2ec3EmsC7fEN4lfsqb_H-31" edge="1">
          <mxGeometry width="50" height="50" relative="1" as="geometry">
            <mxPoint x="470" y="410" as="sourcePoint" />
            <mxPoint x="530" y="350" as="targetPoint" />
          </mxGeometry>
        </mxCell>
        <mxCell id="2ec3EmsC7fEN4lfsqb_H-46" value="CATEGORIAS" style="rounded=0;whiteSpace=wrap;html=1;" parent="1" vertex="1">
          <mxGeometry x="91" y="510" width="110" height="40" as="geometry" />
        </mxCell>
        <mxCell id="2ec3EmsC7fEN4lfsqb_H-47" value="&lt;u&gt;id&lt;/u&gt;" style="ellipse;whiteSpace=wrap;html=1;" parent="1" vertex="1">
          <mxGeometry x="16" y="450" width="70" height="30" as="geometry" />
        </mxCell>
        <mxCell id="2ec3EmsC7fEN4lfsqb_H-48" value="" style="endArrow=none;html=1;rounded=0;entryX=0.571;entryY=1;entryDx=0;entryDy=0;exitX=0;exitY=0;exitDx=0;exitDy=0;entryPerimeter=0;" parent="1" source="2ec3EmsC7fEN4lfsqb_H-46" target="2ec3EmsC7fEN4lfsqb_H-47" edge="1">
          <mxGeometry width="50" height="50" relative="1" as="geometry">
            <mxPoint x="144" y="505" as="sourcePoint" />
            <mxPoint x="-1" y="455" as="targetPoint" />
          </mxGeometry>
        </mxCell>
        <mxCell id="2ec3EmsC7fEN4lfsqb_H-49" value="nombre" style="ellipse;whiteSpace=wrap;html=1;" parent="1" vertex="1">
          <mxGeometry x="35" y="600" width="90" height="40" as="geometry" />
        </mxCell>
        <mxCell id="2ec3EmsC7fEN4lfsqb_H-50" value="" style="endArrow=none;html=1;rounded=0;exitX=0.722;exitY=0;exitDx=0;exitDy=0;exitPerimeter=0;entryX=0.25;entryY=1;entryDx=0;entryDy=0;" parent="1" source="2ec3EmsC7fEN4lfsqb_H-49" target="2ec3EmsC7fEN4lfsqb_H-46" edge="1">
          <mxGeometry width="50" height="50" relative="1" as="geometry">
            <mxPoint x="410" y="580" as="sourcePoint" />
            <mxPoint x="460" y="530" as="targetPoint" />
          </mxGeometry>
        </mxCell>
        <mxCell id="2ec3EmsC7fEN4lfsqb_H-51" value="descripcion" style="ellipse;whiteSpace=wrap;html=1;" parent="1" vertex="1">
          <mxGeometry x="120" y="430" width="90" height="40" as="geometry" />
        </mxCell>
        <mxCell id="2ec3EmsC7fEN4lfsqb_H-52" value="" style="endArrow=none;html=1;rounded=0;entryX=0.5;entryY=1;entryDx=0;entryDy=0;exitX=0.5;exitY=0;exitDx=0;exitDy=0;" parent="1" source="2ec3EmsC7fEN4lfsqb_H-46" target="2ec3EmsC7fEN4lfsqb_H-51" edge="1">
          <mxGeometry width="50" height="50" relative="1" as="geometry">
            <mxPoint x="410" y="580" as="sourcePoint" />
            <mxPoint x="460" y="530" as="targetPoint" />
          </mxGeometry>
        </mxCell>
        <mxCell id="2ec3EmsC7fEN4lfsqb_H-53" value="PERTENECE" style="rhombus;whiteSpace=wrap;html=1;" parent="1" vertex="1">
          <mxGeometry x="250" y="390" width="100" height="80" as="geometry" />
        </mxCell>
        <mxCell id="2ec3EmsC7fEN4lfsqb_H-54" value="" style="endArrow=none;html=1;rounded=0;entryX=1;entryY=0.5;entryDx=0;entryDy=0;exitX=0.5;exitY=1;exitDx=0;exitDy=0;" parent="1" source="2ec3EmsC7fEN4lfsqb_H-53" target="2ec3EmsC7fEN4lfsqb_H-46" edge="1">
          <mxGeometry width="50" height="50" relative="1" as="geometry">
            <mxPoint x="410" y="520" as="sourcePoint" />
            <mxPoint x="460" y="470" as="targetPoint" />
          </mxGeometry>
        </mxCell>
        <mxCell id="2ec3EmsC7fEN4lfsqb_H-55" value="" style="endArrow=none;html=1;rounded=0;entryX=1;entryY=1;entryDx=0;entryDy=0;exitX=0.5;exitY=0;exitDx=0;exitDy=0;" parent="1" source="2ec3EmsC7fEN4lfsqb_H-53" target="2ec3EmsC7fEN4lfsqb_H-19" edge="1">
          <mxGeometry width="50" height="50" relative="1" as="geometry">
            <mxPoint x="410" y="520" as="sourcePoint" />
            <mxPoint x="460" y="470" as="targetPoint" />
          </mxGeometry>
        </mxCell>
        <mxCell id="2ec3EmsC7fEN4lfsqb_H-56" value="DETALLE VENTA" style="rounded=0;whiteSpace=wrap;html=1;" parent="1" vertex="1">
          <mxGeometry x="575" y="510" width="120" height="40" as="geometry" />
        </mxCell>
        <mxCell id="2ec3EmsC7fEN4lfsqb_H-57" value="precio" style="ellipse;whiteSpace=wrap;html=1;" parent="1" vertex="1">
          <mxGeometry x="670" y="400" width="80" height="40" as="geometry" />
        </mxCell>
        <mxCell id="2ec3EmsC7fEN4lfsqb_H-58" value="" style="endArrow=none;html=1;rounded=0;entryX=0.5;entryY=1;entryDx=0;entryDy=0;exitX=1;exitY=0;exitDx=0;exitDy=0;" parent="1" source="2ec3EmsC7fEN4lfsqb_H-56" target="2ec3EmsC7fEN4lfsqb_H-57" edge="1">
          <mxGeometry width="50" height="50" relative="1" as="geometry">
            <mxPoint x="410" y="480" as="sourcePoint" />
            <mxPoint x="510" y="430" as="targetPoint" />
          </mxGeometry>
        </mxCell>
        <mxCell id="2ec3EmsC7fEN4lfsqb_H-59" value="monto_total" style="ellipse;whiteSpace=wrap;html=1;" parent="1" vertex="1">
          <mxGeometry x="610" y="600" width="90" height="40" as="geometry" />
        </mxCell>
        <mxCell id="2ec3EmsC7fEN4lfsqb_H-60" value="" style="endArrow=none;html=1;rounded=0;exitX=0.5;exitY=0;exitDx=0;exitDy=0;entryX=0.5;entryY=1;entryDx=0;entryDy=0;" parent="1" source="2ec3EmsC7fEN4lfsqb_H-59" target="2ec3EmsC7fEN4lfsqb_H-56" edge="1">
          <mxGeometry width="50" height="50" relative="1" as="geometry">
            <mxPoint x="410" y="480" as="sourcePoint" />
            <mxPoint x="460" y="430" as="targetPoint" />
          </mxGeometry>
        </mxCell>
        <mxCell id="2ec3EmsC7fEN4lfsqb_H-61" value="cantidad_ventida" style="ellipse;whiteSpace=wrap;html=1;" parent="1" vertex="1">
          <mxGeometry x="400" y="550" width="120" height="50" as="geometry" />
        </mxCell>
        <mxCell id="2ec3EmsC7fEN4lfsqb_H-62" value="" style="endArrow=none;html=1;rounded=0;entryX=0;entryY=0.5;entryDx=0;entryDy=0;exitX=1;exitY=0.5;exitDx=0;exitDy=0;" parent="1" source="2ec3EmsC7fEN4lfsqb_H-61" target="2ec3EmsC7fEN4lfsqb_H-56" edge="1">
          <mxGeometry width="50" height="50" relative="1" as="geometry">
            <mxPoint x="410" y="480" as="sourcePoint" />
            <mxPoint x="570" y="530" as="targetPoint" />
          </mxGeometry>
        </mxCell>
        <mxCell id="2ec3EmsC7fEN4lfsqb_H-63" value="OBTIENE" style="rhombus;whiteSpace=wrap;html=1;" parent="1" vertex="1">
          <mxGeometry x="490" y="370" width="80" height="80" as="geometry" />
        </mxCell>
        <mxCell id="2ec3EmsC7fEN4lfsqb_H-64" value="" style="endArrow=none;html=1;rounded=0;entryX=0;entryY=1;entryDx=0;entryDy=0;exitX=0.5;exitY=0;exitDx=0;exitDy=0;" parent="1" source="2ec3EmsC7fEN4lfsqb_H-63" target="2ec3EmsC7fEN4lfsqb_H-31" edge="1">
          <mxGeometry width="50" height="50" relative="1" as="geometry">
            <mxPoint x="540" y="330" as="sourcePoint" />
            <mxPoint x="590" y="280" as="targetPoint" />
          </mxGeometry>
        </mxCell>
        <mxCell id="2ec3EmsC7fEN4lfsqb_H-65" value="" style="endArrow=none;html=1;rounded=0;entryX=0.5;entryY=1;entryDx=0;entryDy=0;exitX=0.25;exitY=0;exitDx=0;exitDy=0;" parent="1" source="2ec3EmsC7fEN4lfsqb_H-56" target="2ec3EmsC7fEN4lfsqb_H-63" edge="1">
          <mxGeometry width="50" height="50" relative="1" as="geometry">
            <mxPoint x="440" y="520" as="sourcePoint" />
            <mxPoint x="490" y="470" as="targetPoint" />
          </mxGeometry>
        </mxCell>
      </root>
    </mxGraphModel>
  </diagram>
</mxfile>
